<svg width="30" height="30" viewBox="0 0 30 30" fill="none" xmlns="http://www.w3.org/2000/svg">
<rect width="30" height="30" rx="15" fill="#8B8B8B"/>
<path d="M14.6523 12.0132C15.5112 13.3459 16.6531 14.4797 18.001 15.3306L12.5225 20.8101C12.0975 21.235 11.8851 21.4477 11.624 21.5874C11.3629 21.7271 11.0679 21.7859 10.4785 21.9038L8.23535 22.353C7.90274 22.4195 7.73621 22.4525 7.6416 22.3579C7.5471 22.2633 7.57998 22.0967 7.64648 21.7642L8.0957 19.521C8.21359 18.9316 8.27238 18.6366 8.41211 18.3755C8.55183 18.1144 8.76449 17.902 9.18945 17.4771L14.6523 12.0132ZM17.9639 8.72998C18.676 8.19416 19.657 8.19414 20.3691 8.72998C20.4813 8.81442 20.5986 8.93206 20.833 9.1665C21.0675 9.40101 21.1851 9.51817 21.2695 9.63037C21.8055 10.3425 21.8054 11.3235 21.2695 12.0356C21.1851 12.1478 21.0674 12.2651 20.833 12.4995L19.458 13.8735C18.0592 13.0874 16.9032 11.9393 16.1064 10.5591L17.5 9.1665C17.7344 8.93208 17.8517 8.81442 17.9639 8.72998Z" fill="white"/>
</svg>
