<svg width="28" height="27" viewBox="0 0 28 27" fill="none" xmlns="http://www.w3.org/2000/svg">
<mask id="mask0_474_340" style="mask-type:luminance" maskUnits="userSpaceOnUse" x="0" y="0" width="28" height="27">
<path d="M27.0187 0.244202H0.529297V26.7558H27.0187V0.244202Z" fill="white"/>
</mask>
<g mask="url(#mask0_474_340)">
<path d="M26.4893 13.8013C26.4893 12.8614 26.4051 11.9576 26.2485 11.0898H13.7744V16.2175H20.9024C20.5954 17.8744 19.6623 19.2784 18.2596 20.2183V23.5443H22.54C25.0444 21.2366 26.4893 17.8382 26.4893 13.8013Z" fill="#4285F4"/>
<path d="M13.7745 26.7558C17.3505 26.7558 20.3486 25.5688 22.5401 23.5443L18.2596 20.2183C17.0736 21.0137 15.5564 21.4836 13.7745 21.4836C10.3247 21.4836 7.40495 19.1518 6.36339 16.0186H1.93848V19.4531C4.11789 23.7853 8.59697 26.7558 13.7745 26.7558Z" fill="#34A853"/>
<path d="M6.36292 16.0186C6.09802 15.2232 5.94756 14.3737 5.94756 13.5C5.94756 12.6263 6.09802 11.7767 6.36292 10.9814V7.54694H1.938C1.04107 9.33647 0.529297 11.361 0.529297 13.5C0.529297 15.6389 1.04107 17.6635 1.938 19.453L6.36292 16.0186Z" fill="#FBBC04"/>
<path d="M13.7745 5.51644C15.719 5.51644 17.4648 6.18519 18.8375 7.49871L22.6363 3.69668C20.3426 1.55772 17.3444 0.244202 13.7745 0.244202C8.59697 0.244202 4.11789 3.2147 1.93848 7.54696L6.36339 10.9814C7.40495 7.84827 10.3247 5.51644 13.7745 5.51644Z" fill="#E94235"/>
</g>
</svg>
