<svg width="20" height="20" viewBox="0 0 20 20" fill="none" xmlns="http://www.w3.org/2000/svg">
<path d="M3.70857 11.5901L9.50241 17.0328C9.64756 17.1691 9.72013 17.2373 9.79905 17.2719C9.92694 17.3279 10.0724 17.3279 10.2003 17.2719C10.2792 17.2373 10.3518 17.1691 10.4969 17.0328L16.2908 11.5901C17.9209 10.0587 18.1189 7.53875 16.7478 5.77164L16.4901 5.43937C14.8499 3.3254 11.5577 3.67993 10.4052 6.09463C10.2424 6.43572 9.75691 6.43572 9.59412 6.09463C8.44165 3.67993 5.14944 3.3254 3.50929 5.43937L3.2515 5.77164C1.88046 7.53875 2.07842 10.0587 3.70857 11.5901Z" fill="#F76161" stroke="#F76161"/>
</svg>
