<svg width="30" height="28" viewBox="0 0 30 28" fill="none" xmlns="http://www.w3.org/2000/svg">
<path d="M20.5439 5.79858C22.2101 5.27453 23.0431 5.01313 23.4727 5.45776C23.9022 5.90253 23.6112 6.72572 23.0293 8.3728L18.9404 19.949C18.1549 22.1726 17.7618 23.2846 17.0547 23.2849C16.3474 23.2849 15.9546 22.1729 15.1689 19.949L13.7637 15.9734L18.959 11.072C19.3606 10.693 19.379 10.0596 19 9.65796C18.621 9.2565 17.9876 9.23805 17.5859 9.61694L12.3066 14.5974L8.50195 13.4021C6.01343 12.6194 4.76953 12.2277 4.76953 11.4939C4.76984 10.7603 6.01383 10.3692 8.50195 9.58667L20.5439 5.79858Z" fill="white"/>
</svg>
